<svg width="45" height="45" viewBox="0 0 45 45" fill="none" xmlns="http://www.w3.org/2000/svg">
<circle cx="22.5" cy="22.5" r="21.5" fill="white" stroke="#F13C6E" stroke-width="2"/>
<path d="M26.4057 13.0042L23.8122 13C20.8985 13 19.0155 14.9319 19.0155 17.922V20.1914H16.4078C16.1825 20.1914 16 20.3741 16 20.5994V23.8875C16 24.1128 16.1827 24.2953 16.4078 24.2953H19.0155V32.5922C19.0155 32.8175 19.198 33 19.4233 33H22.8256C23.0509 33 23.2334 32.8173 23.2334 32.5922V24.2953H26.2823C26.5077 24.2953 26.6902 24.1128 26.6902 23.8875L26.6914 20.5994C26.6914 20.4912 26.6483 20.3876 26.572 20.311C26.4956 20.2345 26.3916 20.1914 26.2834 20.1914H23.2334V18.2676C23.2334 17.343 23.4537 16.8736 24.6582 16.8736L26.4053 16.873C26.6304 16.873 26.8129 16.6903 26.8129 16.4651V13.412C26.8129 13.1871 26.6306 13.0046 26.4057 13.0042Z" fill="#F13C6E"/>
</svg>
